# xmcd
#
# Track frame offsets:
#	150
#	12675
#	26105
#	43745
#	63122
#	78805
#	94782
#	109550
#	123407
#
# Disc length: 1835
#
# Revision: 2
# Processed by: cddbd v1.5.1PL0 Copyright (c) Steve Scherf et al.
# Submitted via: DiscPlay 4.0.3
# Normalized: r1:TSWAP
#
DISCID=6b072909
DTITLE=EMI Various - EMI June 1998
DYEAR=1900
DGENRE=
TTITLE0=Kim Mitchell - Sudbury Saturday Night
TTITLE1=Joan Kennedy - Working Man's Daughter
TTITLE2=Garth Brooks - To Make You Feel My Love
TTITLE3=Bob Segar and Martina McBride - Chances Are
TTITLE4=Suzy Boguss - Somebody To Love
TTITLE5=Steve Wariner - Road Trippin'
TTITLE6=Jo Dee Messina - I'm Alright
TTITLE7=Hal Ketchum - When Love Looks Back At You
TTITLE8=Chris LeDoux - Runaway Love
EXTD=
EXTT0=
EXTT1=
EXTT2=
EXTT3=
EXTT4=
EXTT5=
EXTT6=
EXTT7=
EXTT8=
PLAYORDER=
